<svg width="18" height="17" viewBox="0 0 18 17" fill="none" xmlns="http://www.w3.org/2000/svg">
<path d="M13.1667 0.5C11.38 0.5 9.84 1.38609 9 2.85391C8.16 1.38609 6.62 0.5 4.83333 0.5C3.55193 0.501611 2.32345 1.03349 1.41736 1.97898C0.511264 2.92447 0.00154373 4.20636 0 5.54348C0 8.02956 1.5 10.6278 4.45 13.2643C5.81215 14.4737 7.28284 15.5433 8.84167 16.4583C8.89031 16.4857 8.94472 16.5 9 16.5C9.05528 16.5 9.10969 16.4857 9.15833 16.4583C10.7172 15.5433 12.1879 14.4737 13.55 13.2643C16.5 10.6278 18 8.02956 18 5.54348C17.9985 4.20636 17.4887 2.92447 16.5826 1.97898C15.6766 1.03349 14.4481 0.501611 13.1667 0.5ZM9 15.7539C7.83333 15.0583 0.666667 10.593 0.666667 5.54348C0.66799 4.39079 1.1074 3.2857 1.88852 2.47063C2.66963 1.65555 3.72867 1.19703 4.83333 1.19565C6.5925 1.19565 8.07083 2.17913 8.69167 3.76174C8.71678 3.82553 8.7595 3.8801 8.8144 3.9185C8.8693 3.9569 8.93391 3.9774 9 3.9774C9.06609 3.9774 9.13069 3.9569 9.1856 3.9185C9.2405 3.8801 9.28322 3.82553 9.30833 3.76174C9.92917 2.17913 11.4075 1.19565 13.1667 1.19565C14.2713 1.19703 15.3304 1.65555 16.1115 2.47063C16.8926 3.2857 17.332 4.39079 17.3333 5.54348C17.3333 10.587 10.1667 15.0617 9 15.7539Z" fill="#F4623B"/>
<path d="M9 15.7539C7.83333 15.0583 0.666667 10.593 0.666667 5.54348C0.66799 4.39079 1.1074 3.2857 1.88852 2.47063C2.66963 1.65555 3.72867 1.19703 4.83333 1.19565C6.5925 1.19565 8.07083 2.17913 8.69167 3.76174C8.71678 3.82553 8.7595 3.8801 8.8144 3.9185C8.8693 3.9569 8.93391 3.9774 9 3.9774C9.06609 3.9774 9.13069 3.9569 9.1856 3.9185C9.2405 3.8801 9.28322 3.82553 9.30833 3.76174C9.92917 2.17913 11.4075 1.19565 13.1667 1.19565C14.2713 1.19703 15.3304 1.65555 16.1115 2.47063C16.8926 3.2857 17.332 4.39079 17.3333 5.54348C17.3333 10.587 10.1667 15.0617 9 15.7539Z" fill="#F4623B"/>
</svg>
