<svg width="18" height="18" viewBox="0 0 18 18" fill="none" xmlns="http://www.w3.org/2000/svg">
<path d="M1.8 0C0.8052 0 0 0.804504 0 1.80113V12.6007C0 13.5961 0.8052 14.4006 1.8 14.4006H6.2796L8.5008 17.7327C8.55559 17.8149 8.62983 17.8823 8.71691 17.929C8.80399 17.9756 8.90123 18 9 18C9.09877 18 9.19601 17.9756 9.28309 17.929C9.37017 17.8823 9.44441 17.8149 9.4992 17.7327L11.7204 14.4006H16.2C17.1948 14.4006 18 13.5961 18 12.5995V1.80113C18 0.804504 17.1948 0 16.2 0H1.8Z" fill="#BFBFBF"/>
</svg>
