<svg width="18" height="18" viewBox="0 0 18 18" fill="none" xmlns="http://www.w3.org/2000/svg">
<path d="M14.9327 5.7586L14.9326 5.75856L12.2621 3.08611L12.2619 3.0859C11.3315 2.15408 10.6929 1.51764 10.1694 1.12913C9.65645 0.748459 9.41004 0.725156 9.23526 0.763635L14.9327 5.7586ZM14.9327 5.7586C15.8567 6.68316 16.4876 7.31754 16.873 7.8379C17.2504 8.34744 17.2747 8.59348 17.2367 8.76907L17.2366 8.76958C17.199 8.94406 17.0759 9.15761 16.5216 9.46527C15.9557 9.77937 15.1192 10.0957 13.8963 10.5548L13.896 10.5549L12.2351 11.1791L12.2351 11.1791C12.2008 11.192 12.1669 11.2047 12.1333 11.2173C11.5908 11.4206 11.1481 11.5865 10.7968 11.8905L10.796 11.8912C10.6438 12.0233 10.5072 12.1724 10.3892 12.3361L10.3871 12.339C10.1167 12.7178 9.99213 13.1728 9.83838 13.7344C9.82921 13.7679 9.81993 13.8018 9.81052 13.836M14.9327 5.7586L11.2876 12.4576M11.2876 12.4576C11.1786 12.5522 11.0813 12.6585 10.9976 12.7747C10.8066 13.0422 10.7156 13.3728 10.5337 14.0348M11.2876 12.4576C11.5349 12.2435 11.8559 12.1229 12.4963 11.8822M11.2876 12.4576L12.4963 11.8822M10.5337 14.0348L9.81065 13.8356C9.81061 13.8357 9.81056 13.8359 9.81052 13.836M10.5337 14.0348L10.5327 14.0383C10.1182 15.5429 9.91095 16.2949 9.41776 16.5766C9.2097 16.6955 8.97462 16.7568 8.73594 16.7568C8.16851 16.7568 7.61724 16.2055 6.5165 15.1047L6.51126 15.0994M10.5337 14.0348L6.51126 15.0994M9.81052 13.836C9.59801 14.6073 9.45485 15.1227 9.30914 15.4856C9.16281 15.85 9.06859 15.9123 9.04577 15.9254L9.04564 15.9255C8.95283 15.9785 8.84633 16.0068 8.73594 16.0068C8.71075 16.0068 8.59875 15.9999 8.29166 15.7554C7.98586 15.512 7.60705 15.1346 7.0416 14.5691M9.81052 13.836L7.0416 14.5691M7.0416 14.5691L5.72156 13.2472L5.27927 12.8043L5.27942 12.8042L4.74936 12.2741L3.47443 10.9991C3.47429 10.9989 3.47414 10.9988 3.474 10.9987C2.91297 10.4367 2.53854 10.0602 2.29663 9.7563C2.05371 9.4511 2.04556 9.33899 2.04539 9.31292L2.04539 9.31271C2.04465 9.20159 2.07349 9.09227 2.12893 8.99598L7.0416 14.5691ZM6.51126 15.0994L5.72081 14.3079L5.7215 14.3072L5.19086 13.7772L4.66015 14.3071L4.66084 14.3078L1.16031 17.8124L6.51126 15.0994ZM5.70405 7.65638L5.70369 7.65664C5.32612 7.92835 4.87004 8.05361 4.31159 8.20698C4.27619 8.21671 4.24037 8.22654 4.20414 8.23654C3.43866 8.44775 2.92689 8.59008 2.56633 8.73481C2.20488 8.87989 2.14204 8.97329 2.12901 8.99585L5.70405 7.65638ZM5.70405 7.65638C5.87262 7.53492 6.02591 7.39358 6.16062 7.2354L5.70405 7.65638ZM8.54194 1.48862C8.23016 2.06179 7.91805 2.90809 7.46496 4.14437L8.54194 1.48862ZM8.54194 1.48862C8.84764 0.926639 9.06126 0.802062 9.23512 0.763666L8.54194 1.48862ZM12.4963 11.8822L12.499 11.8812L12.4963 11.8822ZM6.86334 5.78631L7.46494 4.14442L6.16097 7.23498C6.46418 6.8791 6.62714 6.43291 6.82785 5.88339C6.83953 5.85141 6.85133 5.81908 6.86331 5.78639C6.86332 5.78636 6.86333 5.78634 6.86334 5.78631Z" stroke="#5CA54B" stroke-width="1.5"/>
</svg>
