<svg width="22" height="18" viewBox="0 0 22 18" fill="none" xmlns="http://www.w3.org/2000/svg">
<path fill-rule="evenodd" clip-rule="evenodd" d="M1.11684 0.0602824C0.968135 0.000370119 0.804081 -0.0153382 0.645951 0.0151947C0.487821 0.0457276 0.342911 0.121093 0.230012 0.231517C0.117113 0.341941 0.041435 0.48233 0.0127919 0.634476C-0.0158512 0.786622 0.00386222 0.943507 0.0693754 1.08479L3.38884 8.22854H11.5367C11.7502 8.22854 11.9549 8.30982 12.1059 8.45449C12.2568 8.59917 12.3416 8.79539 12.3416 9C12.3416 9.20461 12.2568 9.40083 12.1059 9.54551C11.9549 9.69018 11.7502 9.77146 11.5367 9.77146H3.38884L0.0693754 16.9152C0.00386222 17.0565 -0.0158512 17.2134 0.0127919 17.3655C0.041435 17.5177 0.117113 17.6581 0.230012 17.7685C0.342911 17.8789 0.487821 17.9543 0.645951 17.9848C0.804081 18.0153 0.968135 17.9996 1.11684 17.9397L21.508 9.71078C21.6539 9.65179 21.7783 9.55291 21.8658 9.42648C21.9533 9.30006 22 9.15171 22 9C22 8.84829 21.9533 8.69994 21.8658 8.57352C21.7783 8.44709 21.6539 8.34821 21.508 8.28923L1.11684 0.0602824Z" fill="#5CA54B"/>
</svg>
