<svg width="20" height="20" viewBox="0 0 20 20" fill="none" xmlns="http://www.w3.org/2000/svg">
<path d="M1.9 11.9544L1 15.5544L4.6 14.6544L9.8137 9.44071L15.0274 4.22702C15.3648 3.88947 15.5544 3.43171 15.5544 2.95442C15.5544 2.47712 15.3648 2.01937 15.0274 1.68182L14.8726 1.52702C14.535 1.18957 14.0773 1 13.6 1C13.1227 1 12.665 1.18957 12.3274 1.52702L7.1137 6.74072L1.9 11.9544ZM10.9 2.95442L13.6 5.65442L10.9 2.95442ZM1 19H4.6H19" fill="#BFBFBF"/>
<path d="M10.9 2.95442L13.6 5.65442M1 19H4.6H19M1.9 11.9544L1 15.5544L4.6 14.6544L9.8137 9.44071L15.0274 4.22702C15.3648 3.88947 15.5544 3.43171 15.5544 2.95442C15.5544 2.47712 15.3648 2.01937 15.0274 1.68182L14.8726 1.52702C14.535 1.18957 14.0773 1 13.6 1C13.1227 1 12.665 1.18957 12.3274 1.52702L7.1137 6.74072L1.9 11.9544Z" stroke="#BFBFBF" stroke-width="1.5" stroke-linecap="round" stroke-linejoin="round"/>
</svg>
