<svg width="36" height="36" viewBox="0 0 36 36" fill="none" xmlns="http://www.w3.org/2000/svg">
<path d="M-1.57361e-06 18C-2.44269e-06 8.05888 8.05887 2.44269e-06 18 1.57361e-06C27.9411 7.04529e-07 36 8.05887 36 18C36 27.9411 27.9411 36 18 36C8.05887 36 -7.04529e-07 27.9411 -1.57361e-06 18Z" fill="#5CA54B"/>
<path fill-rule="evenodd" clip-rule="evenodd" d="M19 9C19 8.44772 18.5523 8 18 8C17.4477 8 17 8.44772 17 9L17 17L9 17C8.44771 17 8 17.4477 8 18C8 18.5523 8.44771 19 9 19L17 19L17 27C17 27.5523 17.4477 28 18 28C18.5523 28 19 27.5523 19 27L19 19L27 19C27.5523 19 28 18.5523 28 18C28 17.4477 27.5523 17 27 17L19 17L19 9Z" fill="white"/>
</svg>
