<svg width="26" height="22" viewBox="0 0 26 22" fill="none" xmlns="http://www.w3.org/2000/svg">
<path d="M18.5561 0.5H18.5556C16.2891 0.5 14.274 1.44345 13 3.06687C11.726 1.44345 9.71092 0.5 7.44444 0.5L7.44386 0.5C5.60641 0.502166 3.8427 1.21708 2.54016 2.49131C1.23725 3.7659 0.502226 5.49635 0.5 7.30373V7.30435C0.5 10.6337 2.63799 14.0088 6.61221 17.3387L6.61346 17.3397C8.45426 18.8719 10.4416 20.2269 12.5478 21.3859L12.5478 21.3859L12.5554 21.39C12.6926 21.4624 12.8453 21.5 13 21.5C13.1547 21.5 13.3074 21.4624 13.4446 21.39L13.4446 21.39L13.4522 21.3859C15.5584 20.2269 17.5457 18.8719 19.3865 17.3397L19.3878 17.3387C23.362 14.0088 25.5 10.6337 25.5 7.30435V7.30373C25.4978 5.49635 24.7628 3.7659 23.4598 2.49131C22.1573 1.21708 20.3936 0.502166 18.5561 0.5Z" fill="#F4623B" stroke="#303030"/>
</svg>
