<svg width="70" height="43" viewBox="0 0 70 43" fill="none" xmlns="http://www.w3.org/2000/svg">
<g filter="url(#filter0_f_607_3990)">
<path d="M54.2071 7.72638C54.1947 5.94223 51.3841 3.69466 49.4436 3.70401C47.503 3.71336 44.7204 5.99553 44.7329 7.77968C44.7338 8.28771 44.8474 8.76896 45.0204 9.21226C44.6379 8.89907 44.195 8.63367 43.6849 8.47501C41.9876 7.93489 38.9713 9.91114 38.3884 11.7558C37.8054 13.6005 39.1166 16.9542 40.8139 17.4944C41.3666 17.6729 41.932 17.6985 42.4715 17.6465C42.0053 17.9261 41.5748 18.2846 41.2357 18.7582C40.1952 20.2063 41.1437 23.6774 42.7235 24.8015C44.2977 25.9299 47.8921 25.7187 48.9326 24.2705C49.2717 23.7969 49.4765 23.2778 49.5928 22.7485C49.7161 23.2757 49.9204 23.7923 50.265 24.2605C51.3247 25.6978 54.925 25.8657 56.4836 24.7216C58.0478 23.5731 58.9501 20.0923 57.8947 18.6604C57.5501 18.1923 57.1132 17.8329 56.6463 17.5598C57.1843 17.6071 57.7467 17.5726 58.2967 17.3873C59.9926 16.8218 61.2652 13.4585 60.6503 11.6245C60.0409 9.78619 57.0101 7.84676 55.3098 8.4068C54.7653 8.58775 54.2968 8.88706 53.897 9.23914C54.0808 8.77242 54.2046 8.26389 54.1973 7.72524L54.2071 7.72638Z" fill="#706F6F"/>
<path d="M53.8165 7.60917C53.804 5.82501 50.9935 3.57744 49.0529 3.58679C47.1124 3.59614 44.3298 5.87832 44.3422 7.66248C44.3431 8.17051 44.4568 8.65176 44.6297 9.09505C44.2473 8.78187 43.8044 8.51646 43.2943 8.35781C41.597 7.81768 38.5807 9.79394 37.9977 11.6386C37.4148 13.4833 38.7259 16.8371 40.4233 17.3772C40.9759 17.5557 41.5413 17.5813 42.0809 17.5293C41.6147 17.8089 41.1842 18.1674 40.845 18.6411C39.8046 20.0892 40.7531 23.5603 42.3328 24.6843C43.9071 25.8127 47.5014 25.6015 48.5419 24.1534C48.881 23.6797 49.0858 23.1607 49.2021 22.6313C49.3254 23.1585 49.5297 23.6752 49.8743 24.1433C50.9341 25.5806 54.5343 25.7485 56.093 24.6044C57.6571 23.4559 58.5595 19.9751 57.504 18.5432C57.1595 18.0751 56.7225 17.7157 56.2556 17.4426C56.7936 17.4899 57.356 17.4554 57.906 17.2701C59.6019 16.7046 60.8746 13.3413 60.2597 11.5073C59.6502 9.66898 56.6195 7.72955 54.9192 8.28959C54.3747 8.47054 53.9062 8.76986 53.5064 9.12193C53.6901 8.65521 53.8139 8.14668 53.8066 7.60803L53.8165 7.60917Z" fill="url(#paint0_radial_607_3990)"/>
<path d="M49.1832 19.9083C50.147 18.2621 51.7496 17.0832 53.609 16.6562C52.338 15.2342 51.7091 13.3488 51.8799 11.4464C50.1305 12.2149 48.1396 12.2284 46.3863 11.4826C46.5798 13.3823 45.9715 15.2739 44.7177 16.7122C46.5111 17.0693 48.2158 18.3622 49.1832 19.9083Z" fill="#D24C28"/>
<path fill-rule="evenodd" clip-rule="evenodd" d="M44.3384 13.7336C44.3696 13.6354 44.4747 13.5811 44.573 13.6124L49.1265 15.0608C49.2248 15.0921 49.2791 15.1971 49.2478 15.2953C49.2165 15.3934 49.1115 15.4477 49.0132 15.4164L44.4597 13.968C44.3614 13.9367 44.3071 13.8317 44.3384 13.7336Z" fill="#F9C662"/>
<path fill-rule="evenodd" clip-rule="evenodd" d="M45.1576 12.1995C45.2207 12.118 45.338 12.103 45.4197 12.166L49.1992 15.0833C49.2809 15.1463 49.2959 15.2635 49.2328 15.345C49.1698 15.4266 49.0525 15.4416 48.9708 15.3786L45.1913 12.4613C45.1096 12.3982 45.0946 12.281 45.1576 12.1995Z" fill="#F9C662"/>
<path fill-rule="evenodd" clip-rule="evenodd" d="M44.1266 15.4366C44.1223 15.3337 44.2023 15.2467 44.3054 15.2424L49.0801 15.0433C49.1832 15.039 49.2703 15.119 49.2746 15.222C49.2789 15.3249 49.1989 15.4119 49.0958 15.4162L44.3211 15.6153C44.218 15.6196 44.1309 15.5396 44.1266 15.4366Z" fill="#F9C662"/>
<path fill-rule="evenodd" clip-rule="evenodd" d="M49.1955 15.0718C49.2794 15.1319 49.2987 15.2485 49.2386 15.3322L46.4549 19.213C46.3948 19.2968 46.2781 19.316 46.1942 19.256C46.1103 19.196 46.091 19.0794 46.1511 18.9956L48.9348 15.1148C48.9949 15.031 49.1116 15.0118 49.1955 15.0718Z" fill="#F9C662"/>
<path fill-rule="evenodd" clip-rule="evenodd" d="M44.995 18.0244C44.9367 17.9393 44.9586 17.8232 45.0437 17.765L48.9914 15.0696C49.0766 15.0115 49.1929 15.0333 49.2511 15.1184C49.3094 15.2035 49.2875 15.3196 49.2023 15.3778L45.2547 18.0732C45.1695 18.1313 45.0532 18.1095 44.995 18.0244Z" fill="#F9C662"/>
<path fill-rule="evenodd" clip-rule="evenodd" d="M49.1322 15.0504C49.2316 15.0782 49.2896 15.1812 49.2618 15.2804L47.9758 19.8772C47.948 19.9764 47.8449 20.0344 47.7456 20.0066C47.6462 19.9789 47.5881 19.8759 47.6159 19.7766L48.902 15.1799C48.9298 15.0806 49.0328 15.0227 49.1322 15.0504Z" fill="#F9C662"/>
<path fill-rule="evenodd" clip-rule="evenodd" d="M48.9709 15.0669C49.0539 15.0058 49.1709 15.0236 49.232 15.1066L52.0665 18.95C52.1277 19.033 52.1099 19.1498 52.0269 19.2109C51.9438 19.272 51.8269 19.2543 51.7657 19.1713L48.9313 15.3278C48.8701 15.2448 48.8878 15.128 48.9709 15.0669Z" fill="#F9C662"/>
<path fill-rule="evenodd" clip-rule="evenodd" d="M49.037 15.0304C49.136 15.0014 49.2398 15.058 49.2689 15.1569L50.6169 19.7396C50.6459 19.8385 50.5893 19.9422 50.4903 19.9712C50.3913 20.0002 50.2875 19.9436 50.2584 19.8447L48.9104 15.262C48.8813 15.1631 48.938 15.0594 49.037 15.0304Z" fill="#F9C662"/>
<path fill-rule="evenodd" clip-rule="evenodd" d="M48.939 15.1068C48.9961 15.021 49.112 14.9977 49.198 15.0548L53.1834 17.7021C53.2693 17.7592 53.2926 17.875 53.2355 17.9608C53.1784 18.0466 53.0624 18.0699 52.9765 18.0129L48.9911 15.3655C48.9052 15.3084 48.8819 15.1926 48.939 15.1068Z" fill="#F9C662"/>
<path fill-rule="evenodd" clip-rule="evenodd" d="M48.9055 15.2825C48.873 15.1846 48.9261 15.0791 49.024 15.0466L53.561 13.5451C53.659 13.5127 53.7647 13.5658 53.7972 13.6636C53.8297 13.7614 53.7766 13.867 53.6787 13.8994L49.1417 15.4009C49.0437 15.4333 48.938 15.3803 48.9055 15.2825Z" fill="#F9C662"/>
<path fill-rule="evenodd" clip-rule="evenodd" d="M48.896 15.2185C48.8989 15.1155 48.9849 15.0343 49.088 15.0372L53.8687 15.1725C53.9719 15.1754 54.0531 15.2613 54.0502 15.3643C54.0473 15.4673 53.9614 15.5485 53.8582 15.5456L49.0775 15.4103C48.9744 15.4074 48.8931 15.3215 48.896 15.2185Z" fill="#F9C662"/>
<path fill-rule="evenodd" clip-rule="evenodd" d="M48.9362 15.3394C48.8722 15.2585 48.886 15.1412 48.967 15.0773L52.7212 12.1154C52.8022 12.0516 52.9197 12.0654 52.9836 12.1463C53.0476 12.2271 53.0338 12.3445 52.9529 12.4084L49.1986 15.3702C49.1177 15.4341 49.0002 15.4203 48.9362 15.3394Z" fill="#F9C662"/>
<path fill-rule="evenodd" clip-rule="evenodd" d="M49.0687 10.2787C49.1719 10.2782 49.256 10.3613 49.2565 10.4644L49.2812 15.2377C49.2817 15.3407 49.1985 15.4247 49.0953 15.4252C48.9921 15.4257 48.9081 15.3425 48.9075 15.2395L48.8829 10.4662C48.8823 10.3631 48.9655 10.2792 49.0687 10.2787Z" fill="#F9C662"/>
<path fill-rule="evenodd" clip-rule="evenodd" d="M50.7462 10.5582C50.8434 10.5929 50.894 10.6997 50.8592 10.7968L49.2509 15.2915C49.2162 15.3886 49.1093 15.4391 49.0121 15.4044C48.915 15.3697 48.8643 15.2629 48.8991 15.1659L50.5074 10.6711C50.5421 10.574 50.649 10.5235 50.7462 10.5582Z" fill="#F9C662"/>
<path fill-rule="evenodd" clip-rule="evenodd" d="M47.3614 10.581C47.4582 10.5453 47.5656 10.5947 47.6014 10.6913L49.2605 15.1706C49.2963 15.2673 49.2469 15.3746 49.1501 15.4104C49.0534 15.4461 48.9459 15.3967 48.9101 15.3L47.251 10.8207C47.2152 10.7241 47.2647 10.6168 47.3614 10.581Z" fill="#F9C662"/>
</g>
<path d="M50.2666 39.2799L49.8641 33.008C49.7031 31.1184 49.2603 30.5957 47.3281 30.0329L47.6502 28.9072C49.6628 28.9072 52.1988 29.1082 53.3259 29.3092C55.7008 29.3494 58.8003 29.269 62.1011 29.1484C63.3087 29.1082 64.7176 28.9474 65.1603 28.7061C66.0862 28.5051 68.7026 28.6257 69.5077 28.8669C69.709 28.9072 69.7895 29.068 69.7492 29.269C69.5882 30.7566 69.1454 35.179 68.8637 36.747C68.6221 37.8727 68.2599 38.7572 67.8976 39.4005C68.3001 39.3603 68.6624 39.3201 68.9844 39.3201C69.2259 39.2799 69.3467 39.4005 69.3467 39.6015L69.2259 41.0891C69.2259 41.3303 69.1454 41.3705 68.9442 41.3705C62.9062 41.3705 56.4254 41.4107 53.4064 41.4509C53.2051 41.9736 52.9636 42.456 52.7221 42.7375C52.4403 42.8983 51.1522 43.0591 50.9912 42.9787C50.7899 42.5767 50.3874 41.0489 50.2666 39.2799ZM64.9188 30.9174L53.8089 31.1586V39.0789C53.8089 39.2397 53.8089 39.4407 53.7687 39.6417C57.1499 39.6015 63.3892 39.5613 65.2811 39.4809V31.239C65.2811 30.9576 65.1604 30.9174 64.9188 30.9174ZM65.8849 21.992L65.8044 9.85025C65.7641 7.75962 64.8383 7.03594 62.1413 6.19165L62.5439 4.94531C64.9591 4.98552 68.5819 5.78961 69.8297 6.55349C69.9505 6.6339 70.031 6.71431 69.9908 6.91533C69.7895 8.04105 69.7492 9.52862 69.7492 10.4533L69.6687 21.1477C69.5882 23.7208 69.1052 26.0526 68.0586 27.2186C67.8171 27.3794 66.8912 27.5 66.529 27.4598C66.1667 26.8567 65.8849 24.4445 65.8849 21.992Z" fill="#303030"/>
<path d="M2.17368 25.4492L1.28811 24.5647C6.44053 21.2277 10.0231 15.1569 10.4256 12.3024C10.3451 11.257 9.37903 10.654 8.49345 10.2519L8.97649 9.20661C10.5866 9.32723 13.3641 10.2921 14.5315 11.1766C14.8535 11.4179 14.8132 11.6591 14.773 11.8601C14.2899 13.6693 13.3239 15.5187 12.1163 17.2073C14.4509 17.5289 17.792 18.7351 18.2348 20.7453C20.4487 17.6495 22.1393 14.192 22.5821 11.5385C22.7029 10.453 21.2135 9.56845 20.4487 9.24682L21.0122 8.12109C22.7834 8.28191 26.0036 9.40764 27.0905 10.2117C27.332 10.4127 27.2918 10.654 27.2515 10.8952C26.688 13.3075 25.4804 15.7599 23.9507 18.0114C27.4528 18.2928 33.9336 19.7402 33.853 23.5194C33.853 24.6451 32.887 25.61 31.8404 25.61C29.8277 23.8008 26.5269 20.7453 23.5482 18.6145C20.3682 23.1173 15.9806 26.7759 12.9213 28.1027L12.076 27.3388C13.5654 26.2533 15.1755 24.6451 16.6246 22.8761C15.5378 21.6298 13.5251 19.4185 11.6735 17.8104C9.01675 21.3081 5.31344 24.2431 2.17368 25.4492ZM28.9421 35.8621C22.0991 35.9024 15.3365 36.1034 8.57396 36.3044C7.00408 36.3446 4.95116 36.626 3.66305 37.0281C2.4152 36.8271 0.684307 35.5405 0 34.4148L0.684306 33.5705C2.17368 33.9725 4.66939 34.2138 7.40661 34.254C12.7603 34.3344 21.5758 34.254 28.9421 33.7715C31.3573 33.6107 34.0141 33.3695 36.067 32.9674C36.3085 32.9272 36.4293 33.088 36.4293 33.2489L36.3488 35.7013C36.3488 35.8622 36.228 35.9828 36.067 35.9828C34.0946 35.9024 31.1561 35.8621 28.9421 35.8621Z" fill="#303030"/>
<defs>
<filter id="filter0_f_607_3990" x="37.8259" y="3.55632" width="23.0124" height="21.9948" filterUnits="userSpaceOnUse" color-interpolation-filters="sRGB">
<feFlood flood-opacity="0" result="BackgroundImageFix"/>
<feBlend mode="normal" in="SourceGraphic" in2="BackgroundImageFix" result="shape"/>
<feGaussianBlur stdDeviation="0.0148089" result="effect1_foregroundBlur_607_3990"/>
</filter>
<radialGradient id="paint0_radial_607_3990" cx="0" cy="0" r="1" gradientUnits="userSpaceOnUse" gradientTransform="translate(49.3244 15.3258) rotate(-72.3308) scale(14.1742 14.189)">
<stop stop-color="#FF997D"/>
<stop offset="0.18" stop-color="#FF9375"/>
<stop offset="1" stop-color="#FF7C59"/>
</radialGradient>
</defs>
</svg>
