<svg width="26" height="26" viewBox="0 0 26 26" fill="none" xmlns="http://www.w3.org/2000/svg">
<path d="M13 25C19.6276 25 25 19.6276 25 13C25 6.3724 19.6276 1 13 1C6.3724 1 1 6.3724 1 13C1 19.6276 6.3724 25 13 25Z" stroke="#303030" stroke-width="1.5" stroke-linecap="round" stroke-linejoin="round"/>
<path d="M13 12.4004C13.7956 12.4004 14.5587 12.0843 15.1213 11.5217C15.6839 10.9591 16 10.196 16 9.40039C16 8.60474 15.6839 7.84168 15.1213 7.27907C14.5587 6.71646 13.7956 6.40039 13 6.40039C12.2044 6.40039 11.4413 6.71646 10.8787 7.27907C10.3161 7.84168 10 8.60474 10 9.40039C10 10.196 10.3161 10.9591 10.8787 11.5217C11.4413 12.0843 12.2044 12.4004 13 12.4004Z" fill="#303030" stroke="#303030" stroke-width="1.5" stroke-linejoin="round"/>
<path fill-rule="evenodd" clip-rule="evenodd" d="M10.6001 16C7.42128 16 4.81968 18.4726 4.61328 21.5992L4.64757 21.5992L4.5 21.6426C5.83333 22.8092 9.3 25.1426 12.5 25.1426C16.0139 25.1426 19.9137 22.8274 21.1486 21.5868L21.3863 21.5866C21.3808 21.5061 21.3737 21.426 21.3651 21.3465C21.4242 21.2718 21.4695 21.2035 21.5 21.1426C21.5611 21.0203 21.4751 20.8965 21.2748 20.7732C20.7084 18.0481 18.2932 16 15.4001 16H10.6001Z" fill="#303030"/>
<path d="M4.61328 21.5992L4.5135 21.5926L4.50646 21.6993L4.61336 21.6992L4.61328 21.5992ZM4.64757 21.5992L4.67579 21.6951L4.6475 21.4992L4.64757 21.5992ZM4.5 21.6426L4.47178 21.5466L4.29719 21.598L4.43415 21.7178L4.5 21.6426ZM21.1486 21.5868L21.1485 21.4868L21.107 21.4868L21.0777 21.5162L21.1486 21.5868ZM21.3863 21.5866L21.3864 21.6866L21.4933 21.6865L21.4861 21.5798L21.3863 21.5866ZM21.3651 21.3465L21.2867 21.2844L21.2613 21.3165L21.2657 21.3572L21.3651 21.3465ZM21.5 21.1426L21.4106 21.0979V21.0979L21.5 21.1426ZM21.2748 20.7732L21.1768 20.7936L21.1856 20.8358L21.2224 20.8584L21.2748 20.7732ZM4.71306 21.6058C4.91602 18.5314 7.47431 16.1 10.6001 16.1V15.9C7.36825 15.9 4.72334 18.4138 4.5135 21.5926L4.71306 21.6058ZM4.6475 21.4992L4.61321 21.4992L4.61336 21.6992L4.64765 21.6992L4.6475 21.4992ZM4.52822 21.7385L4.67579 21.6951L4.61935 21.5032L4.47178 21.5466L4.52822 21.7385ZM12.5 25.0426C10.9223 25.0426 9.27199 24.4667 7.84534 23.7409C6.41973 23.0157 5.22657 22.1455 4.56585 21.5673L4.43415 21.7178C5.10676 22.3064 6.3136 23.1861 7.75466 23.9192C9.19468 24.6518 10.8777 25.2426 12.5 25.2426V25.0426ZM21.0777 21.5162C20.4711 22.1256 19.1985 23.0086 17.6365 23.7393C16.0753 24.4698 14.2369 25.0426 12.5 25.0426V25.2426C14.277 25.2426 16.1455 24.6578 17.7213 23.9205C19.2964 23.1835 20.5911 22.2886 21.2195 21.6573L21.0777 21.5162ZM21.3862 21.4866L21.1485 21.4868L21.1487 21.6868L21.3864 21.6866L21.3862 21.4866ZM21.2657 21.3572C21.2742 21.4355 21.2811 21.5142 21.2865 21.5934L21.4861 21.5798C21.4805 21.498 21.4733 21.4166 21.4645 21.3357L21.2657 21.3572ZM21.4106 21.0979C21.3842 21.1507 21.3432 21.2131 21.2867 21.2844L21.4435 21.4086C21.5053 21.3306 21.5549 21.2563 21.5894 21.1873L21.4106 21.0979ZM21.2224 20.8584C21.3176 20.917 21.374 20.9691 21.4009 21.0117C21.424 21.0483 21.4232 21.0726 21.4106 21.0979L21.5894 21.1873C21.638 21.0903 21.6247 20.9915 21.57 20.9049C21.5191 20.8242 21.4323 20.7527 21.3272 20.6881L21.2224 20.8584ZM15.4001 16.1C18.2449 16.1 20.62 18.1139 21.1768 20.7936L21.3727 20.7529C20.7969 17.9823 18.3415 15.9 15.4001 15.9V16.1ZM10.6001 16.1H15.4001V15.9H10.6001V16.1Z" fill="#303030"/>
</svg>
