<svg width="36" height="36" viewBox="0 0 36 36" fill="none" xmlns="http://www.w3.org/2000/svg">
<path d="M36 18C36 8.05888 27.9411 2.44269e-06 18 1.57361e-06C8.05888 7.04529e-07 2.44269e-06 8.05887 1.57361e-06 18C7.04529e-07 27.9411 8.05887 36 18 36C27.9411 36 36 27.9411 36 18Z" fill="#F4F4F4"/>
<path fill-rule="evenodd" clip-rule="evenodd" d="M14.3258 27.6746C14.7602 28.1085 15.4644 28.1085 15.8988 27.6746L24.5873 18.9952C25.1376 18.4456 25.1376 17.5544 24.5873 17.0048L15.8988 8.32544C15.4644 7.89152 14.7602 7.89152 14.3258 8.32544C13.8914 8.75935 13.8914 9.46287 14.3258 9.89679L22.4376 18L14.3258 26.1032C13.8914 26.5371 13.8914 27.2406 14.3258 27.6746Z" fill="#BFBFBF"/>
</svg>
