<svg width="36" height="36" viewBox="0 0 36 36" fill="none" xmlns="http://www.w3.org/2000/svg">
<path d="M-1.57361e-06 18C-2.44269e-06 8.05888 8.05887 2.44269e-06 18 1.57361e-06C27.9411 7.04529e-07 36 8.05887 36 18C36 27.9411 27.9411 36 18 36C8.05887 36 -7.04529e-07 27.9411 -1.57361e-06 18Z" fill="#F4F4F4"/>
<path fill-rule="evenodd" clip-rule="evenodd" d="M21.6742 27.6746C21.2398 28.1085 20.5356 28.1085 20.1012 27.6746L11.4127 18.9952C10.8624 18.4456 10.8624 17.5544 11.4127 17.0048L20.1012 8.32544C20.5356 7.89152 21.2398 7.89152 21.6742 8.32544C22.1086 8.75935 22.1086 9.46287 21.6742 9.89679L13.5624 18L21.6742 26.1032C22.1086 26.5371 22.1086 27.2406 21.6742 27.6746Z" fill="#BFBFBF"/>
</svg>
