<svg width="16" height="15" viewBox="0 0 16 15" fill="none" xmlns="http://www.w3.org/2000/svg">
<path d="M11.7037 0.5C10.1156 0.5 8.74667 1.27533 8 2.55967C7.25333 1.27533 5.88444 0.5 4.2963 0.5C3.15727 0.501409 2.06529 0.966806 1.25987 1.79411C0.454457 2.62141 0.00137221 3.74306 0 4.91304C0 7.08837 1.33333 9.36184 3.95556 11.6688C5.16635 12.727 6.47363 13.6629 7.85926 14.4635C7.9025 14.4874 7.95086 14.5 8 14.5C8.04914 14.5 8.0975 14.4874 8.14074 14.4635C9.52637 13.6629 10.8336 12.727 12.0444 11.6688C14.6667 9.36184 16 7.08837 16 4.91304C15.9986 3.74306 15.5455 2.62141 14.7401 1.79411C13.9347 0.966806 12.8427 0.501409 11.7037 0.5ZM8 13.8472C6.96296 13.2385 0.592593 9.33141 0.592593 4.91304C0.593769 3.90444 0.984357 2.93749 1.67868 2.2243C2.37301 1.51111 3.31437 1.1099 4.2963 1.1087C5.86 1.1087 7.17407 1.96924 7.72593 3.35402C7.74825 3.40984 7.78622 3.45759 7.83503 3.49119C7.88383 3.52479 7.94125 3.54273 8 3.54273C8.05875 3.54273 8.11617 3.52479 8.16497 3.49119C8.21378 3.45759 8.25175 3.40984 8.27407 3.35402C8.82593 1.96924 10.14 1.1087 11.7037 1.1087C12.6856 1.1099 13.627 1.51111 14.3213 2.2243C15.0156 2.93749 15.4062 3.90444 15.4074 4.91304C15.4074 9.32608 9.03704 13.2415 8 13.8472Z" fill="#F4623B"/>
<path d="M8 13.8472C6.96296 13.2385 0.592593 9.33141 0.592593 4.91304C0.593769 3.90444 0.984357 2.93749 1.67868 2.2243C2.37301 1.51111 3.31437 1.1099 4.2963 1.1087C5.86 1.1087 7.17407 1.96924 7.72593 3.35402C7.74825 3.40984 7.78622 3.45759 7.83503 3.49119C7.88383 3.52479 7.94125 3.54273 8 3.54273C8.05875 3.54273 8.11617 3.52479 8.16497 3.49119C8.21378 3.45759 8.25175 3.40984 8.27407 3.35402C8.82593 1.96924 10.14 1.1087 11.7037 1.1087C12.6856 1.1099 13.627 1.51111 14.3213 2.2243C15.0156 2.93749 15.4062 3.90444 15.4074 4.91304C15.4074 9.32608 9.03704 13.2415 8 13.8472Z" fill="#F4623B"/>
</svg>
