<svg width="22" height="20" viewBox="0 0 22 20" fill="none" xmlns="http://www.w3.org/2000/svg">
<path d="M6.55556 4.375H3.22222C2.63285 4.375 2.06762 4.61205 1.65087 5.03401C1.23413 5.45597 1 6.02826 1 6.625V16.75C1 17.3467 1.23413 17.919 1.65087 18.341C2.06762 18.7629 2.63285 19 3.22222 19H18.7778C19.3671 19 19.9324 18.7629 20.3491 18.341C20.7659 17.919 21 17.3467 21 16.75V6.625C21 6.02826 20.7659 5.45597 20.3491 5.03401C19.9324 4.61205 19.3671 4.375 18.7778 4.375H15.4444M14.3333 8.875L11 12.25M11 12.25L7.66667 8.875M11 12.25V1" stroke="#5CA54B" stroke-width="1.5" stroke-linecap="round" stroke-linejoin="round"/>
</svg>
