<svg width="26" height="26" viewBox="0 0 26 26" fill="none" xmlns="http://www.w3.org/2000/svg">
<path fill-rule="evenodd" clip-rule="evenodd" d="M17.3073 9.81677C17.3073 13.487 14.2007 16.6335 10.1536 16.6335C6.10658 16.6335 3 13.487 3 9.81677C3 6.14658 6.10658 3 10.1536 3C14.2007 3 17.3073 6.14658 17.3073 9.81677ZM15.6478 18.0737C14.0641 19.0608 12.178 19.6335 10.1536 19.6335C4.54594 19.6335 0 15.2384 0 9.81677C0 4.39512 4.54594 0 10.1536 0C15.7613 0 20.3073 4.39512 20.3073 9.81677C20.3073 12.2156 19.4173 14.4135 17.9393 16.1186L26.0029 23.9148L23.8461 26L15.6478 18.0737Z" fill="#303030"/>
</svg>
