<svg width="18" height="18" viewBox="0 0 18 18" fill="none" xmlns="http://www.w3.org/2000/svg">
<path d="M15.8544 9.88204C15.8903 9.59404 15.9263 9.30604 15.9263 9.00004C15.9263 8.69404 15.8903 8.40604 15.8544 8.11804L17.7955 6.64205C17.9753 6.51605 18.0112 6.26405 17.9034 6.06605L16.0521 2.95207C15.9442 2.75407 15.6926 2.68207 15.4949 2.75407L13.1942 3.65406C12.7089 3.29406 12.1877 3.00607 11.6305 2.77207L11.271 0.37808C11.271 0.162081 11.0733 8.12986e-05 10.8397 8.12986e-05H7.15501C7.04518 -0.0019684 6.93813 0.0347967 6.85267 0.103922C6.76721 0.173048 6.7088 0.270115 6.68769 0.37808L6.32822 2.75407C5.77103 2.97007 5.24978 3.29407 4.76449 3.63606L2.46383 2.73607C2.24815 2.64607 2.01449 2.73607 1.90664 2.93407L0.055333 6.04805C-0.0525102 6.26405 0.00141127 6.49805 0.18115 6.64205L2.12233 8.11804C2.08638 8.40604 2.06841 8.71204 2.06841 9.00004C2.06841 9.30604 2.10435 9.59404 2.1403 9.88204L0.18115 11.376C0.00141127 11.502 -0.0345364 11.754 0.0733069 11.952L1.92462 15.066C2.03246 15.264 2.28409 15.336 2.48181 15.264L4.78246 14.364C5.26776 14.724 5.789 15.012 6.34619 15.246L6.70567 17.622C6.72364 17.838 6.92135 18 7.15501 18H10.8576C11.0913 18 11.289 17.838 11.307 17.622L11.6665 15.246C12.2236 15.03 12.7449 14.706 13.2302 14.364L15.5308 15.264C15.7465 15.354 15.9802 15.264 16.088 15.066L17.9393 11.952C18.0472 11.754 18.0112 11.52 17.8315 11.376L15.8544 9.88204ZM8.98835 12.15C7.20894 12.15 5.75305 10.746 5.75305 9.00004C5.75305 7.25405 7.20894 5.85006 8.98835 5.85006C10.7678 5.85006 12.2236 7.25405 12.2236 9.00004C12.2236 10.746 10.7857 12.15 8.98835 12.15Z" fill="#6C6C6C"/>
</svg>
