<svg width="18" height="18" viewBox="0 0 18 18" fill="none" xmlns="http://www.w3.org/2000/svg">
<path d="M6.90365 13.9846L6.68101 13.6506H6.2796H1.8C1.2192 13.6506 0.75 13.1817 0.75 12.6007V1.80113C0.75 1.2186 1.21953 0.75 1.8 0.75H16.2C16.7805 0.75 17.25 1.2186 17.25 1.80113V12.5995C17.25 13.182 16.7805 13.6506 16.2 13.6506H11.7204H11.319L11.0963 13.9846L9 17.1294L6.90365 13.9846ZM8.87508 17.3168C8.87514 17.3167 8.87519 17.3166 8.87525 17.3165L8.87515 17.3167L8.87508 17.3168ZM9.12475 17.3165C9.1248 17.3166 9.12486 17.3167 9.12492 17.3168L9.12485 17.3167L9.12475 17.3165Z" stroke="#303030" stroke-width="1.5"/>
</svg>
