<svg width="276" height="380" viewBox="0 0 276 380" fill="none" xmlns="http://www.w3.org/2000/svg">
<rect width="276" height="380" rx="8" fill="#E5F0E2"/>
<g filter="url(#filter0_f_719_5019)">
<path d="M157.208 97.7267C157.196 95.9426 154.386 93.6954 152.445 93.705C150.505 93.7147 147.722 95.9972 147.734 97.7813C147.735 98.2893 147.848 98.7705 148.021 99.2138C147.639 98.9007 147.196 98.6353 146.686 98.4767C144.989 97.9369 141.972 99.9135 141.389 101.758C140.806 103.603 142.116 106.956 143.814 107.496C144.366 107.675 144.932 107.7 145.471 107.648C145.005 107.928 144.574 108.286 144.235 108.76C143.194 110.208 144.142 113.679 145.722 114.803C147.296 115.931 150.891 115.72 151.931 114.271C152.271 113.798 152.475 113.279 152.592 112.749C152.715 113.276 152.919 113.793 153.264 114.261C154.323 115.698 157.924 115.866 159.482 114.721C161.047 113.573 161.95 110.092 160.894 108.66C160.55 108.192 160.113 107.833 159.646 107.56C160.184 107.607 160.747 107.572 161.297 107.387C162.993 106.821 164.266 103.458 163.651 101.624C163.042 99.7857 160.011 97.8467 158.311 98.4069C157.766 98.588 157.298 98.8873 156.898 99.2395C157.082 98.7727 157.206 98.2642 157.198 97.7255L157.208 97.7267Z" fill="#706F6F"/>
<path d="M156.818 97.6095C156.806 95.8254 153.995 93.5782 152.055 93.5878C150.114 93.5975 147.331 95.88 147.343 97.6641C147.344 98.1721 147.458 98.6533 147.631 99.0966C147.248 98.7835 146.805 98.5181 146.295 98.3596C144.598 97.8197 141.581 99.7963 140.998 101.641C140.415 103.486 141.726 106.839 143.423 107.379C143.976 107.558 144.541 107.583 145.081 107.531C144.614 107.811 144.184 108.169 143.845 108.643C142.804 110.091 143.752 113.562 145.331 114.686C146.906 115.814 150.5 115.602 151.541 114.154C151.88 113.68 152.085 113.161 152.201 112.632C152.324 113.159 152.529 113.676 152.873 114.144C153.933 115.581 157.533 115.748 159.092 114.604C160.656 113.455 161.559 109.975 160.504 108.543C160.159 108.075 159.722 107.715 159.256 107.442C159.793 107.49 160.356 107.455 160.906 107.27C162.602 106.704 163.875 103.341 163.26 101.507C162.651 99.6685 159.621 97.7295 157.92 98.2898C157.376 98.4708 156.907 98.7701 156.507 99.1223C156.691 98.6555 156.815 98.147 156.808 97.6084L156.818 97.6095Z" fill="url(#paint0_radial_719_5019)"/>
<path d="M152.183 109.909C153.147 108.263 154.749 107.084 156.609 106.657C155.338 105.235 154.709 103.35 154.88 101.447C153.131 102.216 151.14 102.23 149.387 101.484C149.58 103.384 148.971 105.275 147.717 106.714C149.511 107.071 151.215 108.363 152.183 109.909Z" fill="#D24C28"/>
<path fill-rule="evenodd" clip-rule="evenodd" d="M147.338 103.734C147.37 103.635 147.475 103.581 147.573 103.612L152.126 105.06C152.225 105.091 152.279 105.196 152.248 105.295C152.217 105.393 152.111 105.447 152.013 105.416L147.46 103.968C147.361 103.937 147.307 103.832 147.338 103.734Z" fill="#F9C662"/>
<path fill-rule="evenodd" clip-rule="evenodd" d="M148.158 102.199C148.221 102.118 148.338 102.103 148.42 102.166L152.199 105.083C152.281 105.146 152.296 105.263 152.233 105.345C152.17 105.426 152.052 105.441 151.971 105.378L148.191 102.461C148.11 102.398 148.095 102.281 148.158 102.199Z" fill="#F9C662"/>
<path fill-rule="evenodd" clip-rule="evenodd" d="M147.127 105.438C147.122 105.335 147.202 105.248 147.305 105.243L152.08 105.044C152.183 105.039 152.27 105.119 152.275 105.222C152.279 105.325 152.199 105.412 152.096 105.416L147.321 105.616C147.218 105.621 147.131 105.541 147.127 105.438Z" fill="#F9C662"/>
<path fill-rule="evenodd" clip-rule="evenodd" d="M152.196 105.073C152.28 105.133 152.299 105.249 152.239 105.333L149.455 109.214C149.395 109.298 149.278 109.317 149.194 109.257C149.11 109.197 149.091 109.08 149.151 108.996L151.935 105.116C151.995 105.032 152.112 105.013 152.196 105.073Z" fill="#F9C662"/>
<path fill-rule="evenodd" clip-rule="evenodd" d="M147.995 108.025C147.937 107.94 147.959 107.824 148.044 107.766L151.991 105.07C152.077 105.012 152.193 105.034 152.251 105.119C152.309 105.204 152.288 105.32 152.202 105.379L148.255 108.074C148.169 108.132 148.053 108.11 147.995 108.025Z" fill="#F9C662"/>
<path fill-rule="evenodd" clip-rule="evenodd" d="M152.133 105.05C152.232 105.078 152.29 105.181 152.262 105.28L150.975 109.877C150.948 109.976 150.845 110.034 150.745 110.006C150.646 109.979 150.588 109.876 150.616 109.776L151.902 105.18C151.93 105.08 152.033 105.022 152.133 105.05Z" fill="#F9C662"/>
<path fill-rule="evenodd" clip-rule="evenodd" d="M151.971 105.067C152.054 105.006 152.171 105.023 152.232 105.106L155.066 108.95C155.128 109.033 155.11 109.15 155.027 109.211C154.944 109.272 154.827 109.254 154.766 109.171L151.931 105.328C151.87 105.245 151.888 105.128 151.971 105.067Z" fill="#F9C662"/>
<path fill-rule="evenodd" clip-rule="evenodd" d="M152.037 105.031C152.136 105.002 152.24 105.059 152.269 105.158L153.617 109.74C153.646 109.839 153.589 109.943 153.49 109.972C153.391 110.001 153.287 109.944 153.258 109.845L151.911 105.263C151.882 105.164 151.938 105.06 152.037 105.031Z" fill="#F9C662"/>
<path fill-rule="evenodd" clip-rule="evenodd" d="M151.939 105.109C151.996 105.023 152.112 105 152.198 105.057L156.183 107.704C156.269 107.761 156.293 107.876 156.235 107.962C156.178 108.048 156.062 108.071 155.976 108.014L151.991 105.367C151.905 105.31 151.882 105.195 151.939 105.109Z" fill="#F9C662"/>
<path fill-rule="evenodd" clip-rule="evenodd" d="M151.905 105.283C151.873 105.186 151.926 105.08 152.024 105.048L156.561 103.546C156.659 103.513 156.765 103.566 156.797 103.664C156.83 103.762 156.777 103.867 156.679 103.9L152.142 105.402C152.044 105.434 151.938 105.381 151.905 105.283Z" fill="#F9C662"/>
<path fill-rule="evenodd" clip-rule="evenodd" d="M151.896 105.219C151.899 105.116 151.985 105.035 152.088 105.038L156.869 105.173C156.972 105.176 157.053 105.262 157.05 105.365C157.047 105.468 156.961 105.549 156.858 105.546L152.078 105.411C151.974 105.408 151.893 105.322 151.896 105.219Z" fill="#F9C662"/>
<path fill-rule="evenodd" clip-rule="evenodd" d="M151.936 105.34C151.872 105.26 151.886 105.142 151.967 105.078L155.721 102.116C155.802 102.052 155.92 102.066 155.984 102.147C156.048 102.228 156.034 102.345 155.953 102.409L152.199 105.371C152.118 105.435 152 105.421 151.936 105.34Z" fill="#F9C662"/>
<path fill-rule="evenodd" clip-rule="evenodd" d="M152.069 100.28C152.172 100.28 152.256 100.363 152.257 100.466L152.281 105.239C152.281 105.342 152.198 105.426 152.095 105.427C151.992 105.427 151.908 105.344 151.907 105.241L151.883 100.468C151.883 100.365 151.966 100.281 152.069 100.28Z" fill="#F9C662"/>
<path fill-rule="evenodd" clip-rule="evenodd" d="M153.747 100.561C153.844 100.595 153.894 100.702 153.86 100.799L152.251 105.294C152.216 105.391 152.109 105.442 152.012 105.407C151.915 105.372 151.864 105.266 151.899 105.168L153.508 100.674C153.542 100.577 153.649 100.526 153.747 100.561Z" fill="#F9C662"/>
<path fill-rule="evenodd" clip-rule="evenodd" d="M150.362 100.583C150.458 100.547 150.566 100.596 150.602 100.693L152.26 105.172C152.296 105.269 152.247 105.376 152.15 105.412C152.053 105.448 151.946 105.398 151.91 105.302L150.251 100.822C150.215 100.726 150.265 100.618 150.362 100.583Z" fill="#F9C662"/>
</g>
<path d="M153.267 129.28L152.864 123.008C152.703 121.118 152.26 120.596 150.328 120.033L150.65 118.907C152.663 118.907 155.199 119.108 156.326 119.309C158.701 119.349 161.8 119.269 165.101 119.148C166.309 119.108 167.718 118.947 168.16 118.706C169.086 118.505 171.703 118.626 172.508 118.867C172.709 118.907 172.789 119.068 172.749 119.269C172.588 120.757 172.145 125.179 171.864 126.747C171.622 127.873 171.26 128.757 170.898 129.401C171.3 129.36 171.662 129.32 171.984 129.32C172.226 129.28 172.347 129.401 172.347 129.602L172.226 131.089C172.226 131.33 172.145 131.371 171.944 131.371C165.906 131.371 159.425 131.411 156.406 131.451C156.205 131.974 155.964 132.456 155.722 132.737C155.44 132.898 154.152 133.059 153.991 132.979C153.79 132.577 153.387 131.049 153.267 129.28ZM167.919 120.917L156.809 121.159V129.079C156.809 129.24 156.809 129.441 156.769 129.642C160.15 129.602 166.389 129.561 168.281 129.481V121.239C168.281 120.958 168.16 120.917 167.919 120.917ZM168.885 111.992L168.804 99.8503C168.764 97.7596 167.838 97.0359 165.141 96.1917L165.544 94.9453C167.959 94.9855 171.582 95.7896 172.83 96.5535C172.95 96.6339 173.031 96.7143 172.991 96.9153C172.789 98.0411 172.749 99.5286 172.749 100.453L172.669 111.148C172.588 113.721 172.105 116.053 171.059 117.219C170.817 117.379 169.891 117.5 169.529 117.46C169.167 116.857 168.885 114.444 168.885 111.992Z" fill="#303030"/>
<path d="M105.174 115.449L104.288 114.565C109.441 111.228 113.023 105.157 113.426 102.302C113.345 101.257 112.379 100.654 111.493 100.252L111.976 99.2066C113.587 99.3272 116.364 100.292 117.531 101.177C117.853 101.418 117.813 101.659 117.773 101.86C117.29 103.669 116.324 105.519 115.116 107.207C117.451 107.529 120.792 108.735 121.235 110.745C123.449 107.65 125.139 104.192 125.582 101.538C125.703 100.453 124.214 99.5685 123.449 99.2468L124.012 98.1211C125.783 98.2819 129.004 99.4076 130.09 100.212C130.332 100.413 130.292 100.654 130.252 100.895C129.688 103.307 128.48 105.76 126.951 108.011C130.453 108.293 136.934 109.74 136.853 113.519C136.853 114.645 135.887 115.61 134.84 115.61C132.828 113.801 129.527 110.745 126.548 108.614C123.368 113.117 118.981 116.776 115.921 118.103L115.076 117.339C116.565 116.253 118.176 114.645 119.625 112.876C118.538 111.63 116.525 109.419 114.673 107.81C112.017 111.308 108.313 114.243 105.174 115.449ZM131.942 125.862C125.099 125.902 118.337 126.103 111.574 126.304C110.004 126.345 107.951 126.626 106.663 127.028C105.415 126.827 103.684 125.541 103 124.415L103.684 123.57C105.174 123.973 107.669 124.214 110.407 124.254C115.76 124.334 124.576 124.254 131.942 123.772C134.357 123.611 137.014 123.369 139.067 122.967C139.308 122.927 139.429 123.088 139.429 123.249L139.349 125.701C139.349 125.862 139.228 125.983 139.067 125.983C137.095 125.902 134.156 125.862 131.942 125.862Z" fill="#303030"/>
<defs>
<filter id="filter0_f_719_5019" x="140.826" y="93.5583" width="23.0124" height="21.9948" filterUnits="userSpaceOnUse" color-interpolation-filters="sRGB">
<feFlood flood-opacity="0" result="BackgroundImageFix"/>
<feBlend mode="normal" in="SourceGraphic" in2="BackgroundImageFix" result="shape"/>
<feGaussianBlur stdDeviation="0.0148089" result="effect1_foregroundBlur_719_5019"/>
</filter>
<radialGradient id="paint0_radial_719_5019" cx="0" cy="0" r="1" gradientUnits="userSpaceOnUse" gradientTransform="translate(152.325 105.327) rotate(-72.3236) scale(14.1751 14.1881)">
<stop stop-color="#FF997D"/>
<stop offset="0.18" stop-color="#FF9375"/>
<stop offset="1" stop-color="#FF7C59"/>
</radialGradient>
</defs>
</svg>
